<?xml version="1.0" standalone="no"?>
<!DOCTYPE svg PUBLIC "-//W3C//DTD SVG 20010904//EN"
 "http://www.w3.org/TR/2001/REC-SVG-20010904/DTD/svg10.dtd">
<svg version="1.0" xmlns="http://www.w3.org/2000/svg"
 width="462.000000pt" height="368.000000pt" viewBox="0 0 462.000000 368.000000"
 preserveAspectRatio="xMidYMid meet">

<g transform="translate(0.000000,368.000000) scale(0.100000,-0.100000)"
fill="#000000" stroke="none">
<path d="M2165 3320 c-11 -4 -38 -26 -60 -49 -27 -29 -47 -41 -67 -41 -21 0
-28 -5 -28 -19 0 -10 -9 -30 -20 -44 -27 -34 -25 -41 10 -33 20 3 30 1 30 -6
0 -9 3 -9 12 0 7 7 22 12 33 12 12 0 25 3 29 7 3 4 23 12 44 20 35 12 39 11
90 -23 41 -27 53 -40 49 -54 -3 -11 1 -24 9 -31 17 -14 18 -33 2 -58 -17 -27
-3 -55 21 -42 14 8 22 7 31 -4 7 -8 16 -15 21 -15 16 0 10 29 -8 40 -16 10
-14 11 8 7 25 -3 27 0 37 54 17 93 -7 160 -82 226 -25 22 -62 45 -84 51 -45
14 -50 14 -77 2z m93 -43 c56 -28 112 -89 112 -123 0 -25 -3 -23 -53 27 -51
52 -100 81 -162 94 -29 6 -29 7 -10 21 23 17 50 12 113 -19z m-46 -48 c56 -29
138 -107 138 -132 0 -20 -1 -19 -27 5 -44 40 -184 128 -205 128 -11 0 -16 5
-13 10 10 17 63 11 107 -11z"/>
<path d="M2067 3114 c-15 -8 -32 -12 -38 -8 -7 4 -9 -4 -7 -22 2 -20 9 -30 23
-31 11 -2 14 0 8 3 -20 9 -15 24 8 24 11 0 18 -4 15 -9 -3 -5 1 -12 10 -15 11
-4 14 -1 9 13 -3 10 1 24 10 31 8 7 12 16 9 21 -7 12 -14 11 -47 -7z"/>
<path d="M2153 3100 c4 -18 7 -36 7 -40 0 -4 9 -10 20 -13 11 -3 24 -16 29
-29 6 -12 10 -16 10 -9 1 8 -11 28 -26 43 -25 27 -26 28 -6 28 12 0 33 -14 47
-31 21 -25 26 -27 26 -12 0 11 -20 34 -47 54 -65 46 -67 47 -60 9z"/>
<path d="M2165 3030 c-3 -5 -1 -10 4 -10 6 0 11 5 11 10 0 6 -2 10 -4 10 -3 0
-8 -4 -11 -10z"/>
<path d="M1984 2963 c-4 -15 -2 -46 4 -70 14 -52 15 -98 3 -122 -5 -9 -32 -27
-60 -40 -57 -27 -67 -46 -74 -137 -3 -33 -13 -86 -23 -118 -15 -47 -16 -61 -5
-77 9 -16 9 -24 0 -35 -17 -21 -2 -62 29 -78 53 -28 57 -40 20 -81 -23 -27
-33 -48 -34 -74 0 -20 -13 -69 -27 -108 -14 -40 -33 -106 -40 -147 -14 -71
-13 -76 4 -92 25 -22 24 -44 -1 -44 -14 0 -21 -7 -22 -22 0 -13 -2 -36 -3 -51
-1 -16 -7 -32 -13 -36 -6 -4 -18 -24 -27 -44 -13 -32 -14 -48 -4 -100 12 -70
32 -123 56 -149 13 -14 32 -18 89 -18 40 0 78 2 86 5 9 4 12 23 10 70 -3 55
-8 68 -28 84 -19 15 -26 32 -31 73 -3 29 -10 59 -15 65 -7 9 -3 26 11 53 17
33 18 40 6 40 -17 0 -20 16 -4 26 23 14 34 -20 39 -114 5 -96 5 -97 31 -100
l26 -3 5 186 c7 213 14 235 73 235 18 0 37 -5 40 -10 4 -6 9 -50 12 -99 5 -81
8 -90 29 -100 21 -9 22 -13 12 -41 -6 -17 -8 -48 -4 -70 4 -25 1 -48 -9 -66
-8 -16 -15 -36 -15 -44 0 -8 -18 -39 -40 -68 -31 -40 -40 -61 -40 -92 0 -21 5
-42 11 -46 6 -3 39 -9 73 -11 59 -5 64 -4 100 27 57 51 66 75 55 151 -5 35
-11 75 -15 89 -4 18 0 31 15 44 21 19 21 18 35 -16 8 -19 24 -41 36 -49 14
-10 21 -27 23 -54 2 -33 -2 -42 -20 -50 -27 -12 -30 -33 -5 -41 9 -3 32 -12
51 -20 30 -13 37 -13 75 5 71 33 124 35 180 6 154 -79 330 28 330 200 0 74
-26 128 -85 178 -59 51 -131 66 -203 44 -29 -9 -56 -17 -60 -17 -4 0 -6 30 -4
67 3 62 5 68 28 73 18 4 25 12 25 30 0 25 -1 25 -98 27 -54 0 -101 4 -104 7
-3 3 7 20 22 37 25 31 27 38 26 133 -3 259 4 347 32 415 15 36 27 71 27 79 0
27 -43 137 -61 156 -16 17 -23 18 -75 8 -80 -17 -82 -16 -87 21 -4 31 -4 31
-5 -6 -2 -30 -12 -51 -48 -93 -26 -30 -52 -54 -60 -54 -7 0 -16 -4 -19 -10
-14 -22 26 -8 59 21 27 23 43 30 69 27 33 -3 33 -4 25 -36 l-9 -34 -87 3 -87
3 3 -33 c2 -20 -2 -37 -10 -42 -8 -6 -1 -7 18 -3 34 7 58 -12 27 -22 -10 -3
-37 -14 -61 -25 -51 -23 -52 -23 -52 -4 0 9 11 20 25 27 19 9 22 14 15 29 -6
10 -10 27 -10 38 0 13 -12 26 -30 36 -35 18 -33 30 7 40 35 8 63 33 62 54 0
11 -3 10 -11 -6 -6 -12 -17 -24 -26 -28 -24 -9 -163 7 -168 19 -2 6 2 31 9 56
10 34 18 44 31 42 9 -2 33 2 52 8 27 9 38 9 49 0 12 -10 16 -9 21 3 13 36 -14
46 -60 22 -15 -8 -44 -15 -62 -15 -28 0 -36 5 -45 28 -6 15 -8 44 -6 65 6 43
0 49 -9 10z m554 -171 c2 -6 -9 -14 -25 -17 -15 -4 -38 -10 -50 -15 -17 -7
-23 -6 -23 3 0 17 21 44 40 49 19 6 53 -6 58 -20z m30 -98 c24 -17 28 -44 11
-76 -11 -20 -12 -19 -42 9 -18 17 -40 33 -50 36 -23 8 -60 -6 -86 -34 -16 -18
-21 -19 -21 -7 0 9 18 32 40 52 33 30 48 36 83 36 23 0 53 -7 65 -16z m-613
-21 c31 -15 40 -15 68 -4 56 23 72 23 90 3 17 -19 15 -20 -57 -46 l-75 -28
-27 21 c-15 12 -37 21 -50 21 -19 0 -24 5 -24 25 0 30 23 33 75 8z m537 -105
c47 -20 49 -23 44 -51 -3 -16 -6 -37 -6 -46 -1 -14 -2 -14 -13 -1 -39 51 -93
62 -134 30 -15 -11 -28 -18 -31 -16 -8 8 52 95 68 100 8 2 16 4 18 5 2 0 26
-9 54 -21z m-561 2 c16 -9 49 -58 49 -74 0 -2 -14 2 -31 11 -18 9 -42 13 -60
9 -31 -6 -34 -1 -19 38 10 28 29 32 61 16z m434 0 c3 -6 3 -19 0 -30 -10 -30
-53 -26 -65 6 -6 14 -10 27 -10 30 0 9 69 4 75 -6z m-235 -34 c0 -8 2 -21 5
-29 4 -10 -11 -19 -55 -34 l-62 -20 -9 25 c-12 31 1 46 51 60 51 15 70 14 70
-2z m185 -56 c19 -38 20 -37 -13 -32 -15 2 -47 -3 -72 -12 -34 -12 -46 -12
-52 -3 -24 38 8 60 114 76 4 1 14 -12 23 -29z m114 -29 c23 -23 37 -82 26
-108 -5 -14 -10 -8 -20 25 -17 55 -32 72 -62 72 -22 0 -24 2 -13 15 17 21 46
19 69 -4z m-484 0 c3 -5 -3 -12 -14 -16 -11 -3 -34 -28 -51 -55 -31 -48 -50
-63 -50 -38 0 6 7 20 17 30 15 17 15 19 -3 39 -18 20 -18 21 1 35 21 16 91 19
100 5z m108 -73 c-23 -24 -46 -55 -52 -69 -7 -21 -18 -28 -45 -31 -20 -2 -41
-1 -46 2 -12 8 79 105 117 125 15 8 37 15 48 15 16 0 12 -8 -22 -42z m274 14
c-10 -10 -17 -23 -17 -28 0 -5 -4 -15 -8 -22 -11 -17 -62 1 -62 22 0 21 40 46
74 46 28 0 28 -1 13 -18z m-107 -6 c0 -7 -9 -16 -19 -19 -22 -6 -54 -73 -47
-99 5 -21 -23 -24 -56 -7 -24 13 -19 47 13 88 32 42 109 68 109 37z m160 -42
c0 -27 -4 -34 -20 -34 -23 0 -24 3 -8 46 14 40 28 35 28 -12z m157 11 c3 -9 3
-18 0 -21 -7 -8 -47 15 -47 26 0 16 40 11 47 -5z m-247 -35 c47 -16 99 -30
117 -30 23 0 38 -8 57 -31 26 -31 35 -69 16 -69 -5 0 -10 -19 -10 -43 0 -50
-7 -62 -27 -46 -10 9 -13 8 -13 -5 0 -24 -19 -20 -30 7 -7 18 -9 19 -9 4 -2
-34 -26 -11 -26 25 -1 52 -27 85 -74 93 -28 5 -49 17 -75 47 -20 22 -36 43
-36 47 0 5 21 32 25 31 0 0 38 -14 85 -30z m230 -81 c0 -18 -2 -19 -15 -9 -8
7 -15 16 -15 21 0 5 7 9 15 9 9 0 15 -9 15 -21z m-422 -13 c8 -7 12 -25 10
-40 -3 -27 -3 -27 -42 20 l-40 47 30 -7 c16 -4 35 -13 42 -20z m92 -1 c-33
-19 -46 -19 -30 0 7 8 22 15 34 15 20 -1 20 -2 -4 -15z m-187 -32 c33 -16 57
-67 56 -115 0 -29 -1 -30 -9 -11 -5 12 -32 40 -60 62 -39 31 -61 41 -88 41
l-37 1 28 24 c30 27 54 26 110 -2z m297 -37 c19 -7 36 -20 38 -30 3 -14 -4
-16 -65 -10 -65 6 -70 5 -107 -25 -21 -17 -40 -31 -42 -31 -2 0 -8 9 -14 21
-34 62 91 111 190 75z m228 -36 l3 -35 -21 30 c-25 37 -25 47 -2 43 11 -2 18
-14 20 -38z m-647 -46 c7 -8 34 -26 61 -40 42 -21 77 -58 66 -70 -9 -8 -134
47 -150 66 -9 11 -14 29 -11 40 6 24 16 25 34 4z m482 -46 c-10 -12 -19 -15
-21 -8 -7 20 7 40 23 34 14 -6 14 -9 -2 -26z m-58 -18 c3 -5 0 -10 -7 -10 -7
0 -42 -14 -76 -30 -78 -37 -102 -38 -102 -7 0 20 8 26 63 39 75 19 114 21 122
8z m-422 -80 c34 -27 68 -50 75 -50 21 0 9 -35 -13 -38 -11 -1 -45 14 -75 35
-45 31 -56 45 -58 71 -2 18 0 32 3 32 3 0 34 -22 68 -50z m445 -12 c-6 -16
-95 -77 -124 -84 -38 -10 -74 3 -74 26 0 16 7 20 38 20 20 0 60 11 87 24 56
27 79 32 73 14z m250 -95 c-4 -68 -12 -122 -22 -145 -18 -42 -21 -107 -6 -158
9 -30 7 -37 -16 -61 -20 -21 -38 -28 -74 -31 -26 -1 -46 0 -43 5 2 4 13 7 24
7 28 0 25 42 -7 79 -14 17 -29 43 -33 58 -4 16 -17 32 -29 38 -14 6 -22 19
-22 33 0 18 -10 27 -40 40 -49 21 -48 38 2 71 34 22 37 27 44 90 3 36 8 69 11
74 2 4 52 7 110 7 l106 0 -5 -107z m-749 -3 c22 -11 58 -22 80 -26 42 -7 48
-19 20 -37 -36 -23 -149 25 -149 63 0 25 2 25 49 0z m501 -21 c0 -15 -16 -27
-63 -50 -55 -25 -67 -28 -95 -18 -22 7 -32 17 -32 31 0 17 5 19 39 13 31 -5
49 -1 87 19 60 31 64 31 64 5z m-471 -58 c12 -8 12 -12 2 -25 -16 -19 -41 -10
-41 15 0 20 16 24 39 10z m1034 -23 l32 -32 -29 -7 c-17 -5 -30 -7 -30 -6 -1
1 -12 15 -26 30 -21 24 -22 30 -10 37 23 15 29 12 63 -22z m-1078 -8 c19 -13
38 -17 55 -13 21 5 23 4 14 -8 -6 -8 -14 -26 -18 -41 -5 -23 -12 -28 -36 -28
-16 0 -32 -4 -35 -10 -16 -26 -32 -8 -32 35 0 25 5 45 10 45 5 0 7 9 4 20 -6
25 0 25 38 0z m435 -5 c0 -9 -9 -15 -25 -15 -29 0 -34 16 -7 23 30 8 32 7 32
-8z m69 -56 c-16 -10 -23 -4 -14 10 3 6 11 8 17 5 6 -4 5 -9 -3 -15z m611 1
c0 -5 -12 -10 -26 -10 -14 0 -23 4 -19 10 3 6 15 10 26 10 10 0 19 -4 19 -10z
m-676 -75 c7 -19 -3 -19 -45 0 l-34 14 36 1 c24 0 39 -5 43 -15z m126 6 c0
-12 -20 -25 -27 -18 -7 7 6 27 18 27 5 0 9 -4 9 -9z m57 -96 c8 -23 0 -25 -21
-4 -18 17 -18 19 -2 19 9 0 19 -7 23 -15z m142 -54 c-15 -5 -22 6 -14 19 6 9
10 9 16 -1 5 -8 4 -15 -2 -18z m-432 -7 c-3 -3 -12 -4 -19 -1 -8 3 -5 6 6 6
11 1 17 -2 13 -5z m313 -29 c0 -8 -4 -15 -10 -15 -5 0 -10 7 -10 15 0 8 5 15
10 15 6 0 10 -7 10 -15z m270 0 c0 -8 -4 -15 -10 -15 -5 0 -10 7 -10 15 0 8 5
15 10 15 6 0 10 -7 10 -15z"/>
<path d="M2405 2240 c3 -5 8 -10 11 -10 2 0 4 5 4 10 0 6 -5 10 -11 10 -5 0
-7 -4 -4 -10z"/>
<path d="M2360 2226 c0 -2 7 -6 15 -10 8 -3 15 -1 15 4 0 6 -7 10 -15 10 -8 0
-15 -2 -15 -4z"/>
<path d="M2432 2160 c0 -19 2 -27 5 -17 2 9 2 25 0 35 -3 9 -5 1 -5 -18z"/>
<path d="M2029 2937 c-16 -21 -15 -24 2 -45 17 -22 20 -22 48 -8 17 9 48 16
70 16 56 0 59 15 4 18 -27 1 -54 -4 -66 -13 -37 -26 -50 -19 -43 20 8 41 7 42
-15 12z"/>
<path d="M2309 2923 c-9 -10 -14 -42 -14 -89 0 -94 13 -82 17 15 2 53 7 76 17
79 12 4 13 -9 8 -74 -6 -85 -4 -86 16 -8 11 43 11 54 -1 72 -17 26 -25 27 -43
5z"/>
<path d="M2252 2908 c-15 -15 -16 -65 -1 -73 6 -5 9 -27 5 -59 l-5 -51 10 43
c7 30 7 53 0 74 -8 21 -7 36 0 50 13 23 7 32 -9 16z"/>
<path d="M2186 2874 c-4 -9 -2 -22 2 -28 5 -6 14 -24 20 -41 7 -21 11 -24 11
-10 0 11 -6 31 -14 45 -9 18 -10 29 -3 37 7 9 7 13 0 13 -5 0 -13 -7 -16 -16z"/>
<path d="M2055 2820 c-27 -7 -25 -8 18 -9 26 0 47 4 47 9 0 11 -21 11 -65 0z"/>
<path d="M949 1171 c-27 -27 -29 -35 -29 -101 0 -66 2 -74 29 -101 l30 -30
158 3 c168 3 160 1 154 48 0 6 -44 10 -109 10 -102 0 -132 7 -132 32 0 4 45 8
100 8 l100 0 0 35 0 35 -101 0 c-89 0 -100 2 -89 15 10 12 37 15 126 15 l113
0 -2 28 -2 27 -158 3 -158 3 -30 -30z"/>
<path d="M1330 1115 c0 -93 16 -147 48 -164 12 -6 74 -11 141 -11 l121 0 0 30
0 30 -73 0 c-43 0 -78 5 -85 12 -8 8 -12 45 -12 100 l0 88 -70 0 -70 0 0 -85z"/>
<path d="M1709 1171 c-27 -27 -29 -35 -29 -101 0 -66 2 -74 29 -101 l29 -29
156 0 156 0 0 30 0 30 -108 0 c-102 0 -132 7 -132 32 0 4 45 8 100 8 l100 0 0
35 0 35 -101 0 c-89 0 -100 2 -89 15 10 12 37 15 121 15 l109 0 0 30 0 30
-156 0 -156 0 -29 -29z"/>
<path d="M2123 1182 c-58 -45 -58 -168 -2 -221 21 -19 34 -21 181 -21 l158 0
0 30 0 30 -104 0 c-57 0 -111 3 -120 6 -12 5 -16 20 -16 64 0 44 4 59 16 64 9
3 63 6 120 6 l104 0 0 30 0 30 -157 0 c-134 0 -161 -3 -180 -18z"/>
<path d="M2500 1175 c0 -22 4 -24 58 -27 l57 -3 3 -102 3 -103 64 0 64 0 3
103 3 102 58 3 c53 3 57 5 57 27 l0 25 -185 0 -185 0 0 -25z"/>
<path d="M2920 1070 l0 -130 70 0 70 0 0 100 0 100 59 0 c63 0 71 -7 71 -55 0
-27 -26 -45 -64 -45 -14 0 -26 -3 -26 -6 0 -4 16 -27 36 -50 l35 -44 77 0 76
0 -28 29 -29 30 27 31 c35 42 41 72 22 108 -30 58 -44 62 -228 62 l-168 0 0
-130z"/>
<path d="M3434 1190 c-39 -16 -54 -49 -54 -123 0 -62 3 -71 29 -98 l29 -29
142 0 142 0 29 29 c26 26 29 36 29 91 0 70 -17 111 -55 128 -30 14 -258 15
-291 2z m204 -62 c18 -18 15 -94 -4 -112 -18 -19 -94 -22 -112 -4 -16 16 -16
100 0 116 7 7 33 12 58 12 25 0 51 -5 58 -12z"/>
<path d="M840 702 c-57 -103 -104 -189 -102 -192 2 -4 48 -5 85 -1 6 1 22 19
35 41 l23 40 119 0 119 0 23 -42 c21 -39 27 -43 61 -43 20 -1 42 2 48 6 6 4
-27 72 -86 175 l-96 169 1366 3 c1204 2 1365 4 1365 17 0 13 -167 15 -1427 15
l-1428 0 -105 -188z m202 23 l37 -65 -81 0 -80 0 25 43 c13 23 30 52 36 65 6
12 15 22 19 22 4 0 24 -29 44 -65z"/>
<path d="M1260 733 c0 -140 12 -167 85 -203 37 -18 71 -24 146 -28 122 -6 142
-1 169 43 l22 35 107 0 106 0 19 -35 c14 -26 28 -36 53 -41 19 -4 39 -2 45 4
6 6 -21 63 -84 173 l-94 164 -45 3 -46 3 -86 -153 c-48 -84 -87 -147 -87 -140
0 8 -20 12 -65 12 -80 0 -132 20 -145 55 -6 15 -10 71 -10 126 l0 99 -45 0
-45 0 0 -117z m575 -45 l27 -48 -71 0 c-39 0 -71 2 -71 5 0 3 14 30 31 61 36
63 37 62 84 -18z"/>
<path d="M3065 689 l-90 -162 -3 157 -3 156 -58 0 -59 0 -37 -67 c-21 -38 -51
-92 -68 -121 l-30 -54 -64 121 -64 121 -60 0 -59 0 0 -165 0 -165 50 0 50 0 0
88 0 87 47 -87 c36 -68 52 -88 72 -93 29 -6 85 2 89 13 1 4 22 43 47 87 l44
80 1 -87 0 -88 43 -2 c23 0 56 -2 72 -4 50 -4 72 6 91 42 l19 34 106 0 107 0
21 -35 c11 -19 24 -35 28 -36 47 -5 83 -5 81 1 -2 3 -45 82 -97 173 l-94 167
-46 0 -46 0 -90 -161z m172 19 c15 -29 29 -56 31 -60 2 -5 -29 -8 -68 -8 l-71
0 33 60 c18 33 36 60 40 60 4 0 20 -24 35 -52z"/>
<path d="M3490 832 c-65 -32 -77 -113 -24 -163 23 -22 37 -24 137 -29 l112 -5
3 -27 3 -27 -133 -3 -133 -3 -3 -32 c-2 -22 1 -33 10 -34 7 0 73 0 147 1 183
2 207 16 199 116 -2 31 -10 43 -37 61 -30 20 -46 23 -138 23 l-104 0 3 33 3
32 138 3 137 3 0 34 0 35 -142 0 c-116 0 -150 -3 -178 -18z"/>
<path d="M2030 671 l0 -169 33 3 c17 2 38 4 45 4 8 1 12 21 12 66 l0 65 58 0
59 0 43 -69 43 -69 46 5 c25 3 47 6 48 7 1 1 -16 29 -38 63 -44 70 -45 73 -24
73 31 0 65 47 65 89 0 92 -21 101 -230 101 l-160 0 0 -169z m306 95 c17 -24
17 -28 0 -52 -13 -17 -27 -19 -113 -19 l-98 0 -3 33 c-6 62 -2 64 104 60 81
-2 98 -6 110 -22z"/>
<path d="M1401 445 c-2 -5 -3 -34 -2 -63 1 -46 -1 -53 -16 -50 -13 2 -18 13
-18 35 0 24 -3 29 -12 21 -31 -25 -3 -72 39 -66 22 3 23 6 17 68 -3 36 -7 61
-8 55z"/>
<path d="M1601 450 c-8 -20 -4 -130 4 -130 6 0 9 20 7 48 -3 52 -8 90 -11 82z"/>
<path d="M2931 450 c-8 -20 -4 -130 4 -130 6 0 9 20 7 48 -3 52 -8 90 -11 82z"/>
<path d="M713 423 c-4 -11 4 -25 27 -44 22 -19 31 -33 26 -44 -4 -11 -2 -15 6
-13 27 9 20 46 -12 65 -21 12 -30 24 -26 35 5 23 -13 24 -21 1z"/>
<path d="M750 436 c0 -2 7 -6 15 -10 8 -3 15 -1 15 4 0 6 -7 10 -15 10 -8 0
-15 -2 -15 -4z"/>
<path d="M1228 384 c3 -49 1 -55 -15 -52 -13 2 -18 13 -18 36 0 29 -1 31 -12
15 -25 -33 -7 -63 37 -63 24 0 25 1 22 60 -2 33 -7 60 -11 60 -4 0 -5 -25 -3
-56z"/>
<path d="M1488 380 l-3 -60 43 0 c23 0 42 4 42 8 0 5 -13 7 -30 4 -27 -4 -30
-1 -30 21 0 19 6 27 23 30 l22 4 -22 2 c-35 2 -31 39 5 44 22 3 21 4 -10 6
l-36 1 -4 -60z"/>
<path d="M2488 433 c22 -4 24 -9 20 -59 -2 -34 1 -54 8 -54 7 0 9 20 6 56 l-5
57 27 -5 c14 -3 26 -1 26 3 0 5 -24 8 -52 8 -29 -1 -42 -4 -30 -6z"/>
<path d="M3393 423 c-4 -11 4 -25 27 -44 21 -18 31 -33 27 -43 -4 -9 -2 -16 2
-16 9 0 21 24 21 40 0 5 -14 17 -31 27 -20 12 -29 24 -25 35 5 23 -13 24 -21
1z"/>
<path d="M3430 436 c0 -2 7 -6 15 -10 8 -3 15 -1 15 4 0 6 -7 10 -15 10 -8 0
-15 -2 -15 -4z"/>
<path d="M3576 425 c-8 -22 -8 -27 3 -21 7 5 21 -15 21 -30 0 -9 -29 -3 -32 7
-2 6 -11 -6 -21 -25 -9 -20 -13 -36 -8 -36 5 0 11 9 14 20 3 14 14 20 31 20
23 0 31 -9 27 -32 0 -5 6 -8 14 -8 12 0 11 9 -6 53 -24 62 -34 74 -43 52z"/>
<path d="M3717 433 c-16 -15 -5 -44 23 -58 31 -16 39 -40 18 -48 -8 -4 -9 -6
-2 -6 18 -1 35 25 28 42 -3 9 -14 19 -24 22 -10 3 -24 13 -31 21 -10 13 -10
17 2 25 8 5 9 9 3 9 -6 0 -14 -3 -17 -7z"/>
<path d="M3756 433 c5 -5 12 -12 16 -18 4 -6 8 -2 8 8 0 9 -7 17 -17 17 -9 0
-12 -3 -7 -7z"/>
<path d="M1808 414 c-12 -11 -9 -82 3 -89 14 -10 15 -7 9 48 -3 27 -8 45 -12
41z"/>
<path d="M814 386 c-17 -44 21 -86 50 -55 8 9 8 10 -2 5 -13 -8 -42 10 -42 25
0 5 11 9 25 9 25 0 33 14 15 25 -5 3 -10 1 -10 -4 0 -6 -7 -11 -16 -11 -8 0
-12 5 -9 10 3 6 4 10 0 10 -3 0 -8 -6 -11 -14z"/>
<path d="M899 395 c-3 -5 -6 -32 -5 -60 1 -46 3 -50 26 -52 25 -3 25 -3 3 7
-34 14 -29 33 7 28 17 -3 30 -1 30 4 0 4 -11 8 -24 8 -21 0 -25 5 -28 38 -2
20 -6 33 -9 27z"/>
<path d="M935 375 c0 -14 3 -25 6 -25 4 0 9 11 11 25 3 15 1 25 -6 25 -6 0
-11 -11 -11 -25z"/>
<path d="M982 363 c2 -29 8 -38 23 -40 11 -2 14 0 8 3 -7 3 -13 21 -13 40 0
19 -5 34 -11 34 -6 0 -9 -16 -7 -37z"/>
<path d="M1030 360 c0 -22 3 -40 8 -40 4 0 6 18 4 40 -2 22 -6 40 -8 40 -2 0
-4 -18 -4 -40z"/>
<path d="M1068 360 c5 -49 22 -53 22 -6 0 24 5 36 18 39 9 3 4 5 -13 6 -30 1
-30 0 -27 -39z"/>
<path d="M1135 360 c0 -22 5 -40 10 -40 6 0 9 17 7 40 -2 22 -7 40 -11 40 -3
0 -6 -18 -6 -40z"/>
<path d="M1304 391 c3 -5 -6 -16 -20 -26 -32 -21 -26 -40 12 -42 28 -1 29 0
26 38 -2 21 -8 39 -14 39 -5 0 -7 -4 -4 -9z m4 -43 c-6 -18 -28 -21 -28 -4 0
9 7 16 16 16 9 0 14 -5 12 -12z"/>
<path d="M1640 380 c-21 -39 33 -85 56 -48 4 6 3 8 -4 5 -15 -10 -42 3 -42 19
0 8 10 14 25 14 25 0 33 14 15 25 -5 3 -10 1 -10 -4 0 -6 -7 -11 -16 -11 -8 0
-12 5 -9 10 3 6 4 10 1 10 -3 0 -10 -9 -16 -20z"/>
<path d="M1720 380 c-14 -26 3 -60 30 -60 11 0 20 4 20 9 0 5 -8 8 -17 7 -14
-1 -18 7 -18 32 0 38 -1 38 -15 12z"/>
<path d="M1760 390 c0 -5 5 -10 11 -10 5 0 7 5 4 10 -3 6 -8 10 -11 10 -2 0
-4 -4 -4 -10z"/>
<path d="M1848 360 c5 -49 22 -53 22 -6 0 24 5 36 18 39 9 3 4 5 -13 6 -30 1
-30 0 -27 -39z"/>
<path d="M1912 388 c-22 -22 -7 -68 21 -68 5 0 4 7 -3 15 -7 8 -10 26 -8 40 6
29 6 29 -10 13z"/>
<path d="M1955 360 c0 -30 3 -36 13 -28 6 6 12 18 12 28 0 10 -6 22 -12 28
-10 8 -13 2 -13 -28z"/>
<path d="M1995 358 c0 -21 5 -38 10 -38 6 0 10 15 10 32 0 24 5 34 19 36 16 3
18 -1 14 -32 -2 -22 0 -36 7 -36 6 0 9 16 7 40 -4 37 -6 39 -36 38 -29 -1 -31
-3 -31 -40z"/>
<path d="M2090 360 c0 -22 5 -40 10 -40 6 0 10 18 10 40 0 22 -4 40 -10 40 -5
0 -10 -18 -10 -40z"/>
<path d="M2134 375 c-10 -40 32 -75 52 -43 5 7 3 8 -6 3 -20 -12 -42 23 -29
46 6 13 6 19 0 19 -6 0 -13 -11 -17 -25z"/>
<path d="M2175 390 c3 -5 11 -10 16 -10 6 0 7 5 4 10 -3 6 -11 10 -16 10 -6 0
-7 -4 -4 -10z"/>
<path d="M2215 390 c-3 -5 -1 -10 4 -10 6 0 11 5 11 10 0 6 -2 10 -4 10 -3 0
-8 -4 -11 -10z"/>
<path d="M2250 365 c0 -19 -5 -35 -11 -35 -7 0 -9 9 -6 22 5 19 5 20 -10 6
-20 -21 -9 -37 25 -36 26 1 27 3 24 39 -5 49 -22 51 -22 4z"/>
<path d="M2340 395 c0 -4 7 -20 16 -36 17 -34 13 -59 -11 -59 -9 0 -13 -4 -10
-10 12 -20 26 -9 45 36 24 54 25 65 6 38 -14 -18 -15 -18 -21 9 -6 23 -25 39
-25 22z"/>
<path d="M2584 386 c-17 -44 21 -86 50 -55 8 9 8 10 -2 5 -13 -8 -42 10 -42
25 0 5 11 9 25 9 16 0 25 6 25 15 0 8 -5 15 -11 15 -5 0 -7 -4 -4 -10 3 -5 -3
-10 -15 -10 -12 0 -18 5 -15 10 3 6 4 10 0 10 -3 0 -8 -6 -11 -14z"/>
<path d="M2664 386 c-17 -43 21 -85 50 -56 8 8 7 10 -5 5 -21 -8 -43 19 -36
45 6 23 -1 27 -9 6z"/>
<path d="M2700 390 c0 -5 5 -10 10 -10 6 0 10 5 10 10 0 6 -4 10 -10 10 -5 0
-10 -4 -10 -10z"/>
<path d="M2740 360 c0 -22 5 -40 10 -40 6 0 10 18 10 40 0 22 -4 40 -10 40 -5
0 -10 -18 -10 -40z"/>
<path d="M2778 394 c6 -3 12 -21 12 -40 0 -19 5 -34 11 -34 6 0 9 16 7 37 -2
29 -8 38 -23 40 -11 2 -14 0 -7 -3z"/>
<path d="M2834 386 c-9 -23 0 -59 14 -64 11 -3 12 0 2 18 -6 12 -10 31 -7 41
6 22 -1 26 -9 5z"/>
<path d="M2879 381 c9 -16 9 -27 0 -43 -11 -21 -11 -22 5 -9 20 16 18 62 -2
69 -11 3 -12 0 -3 -17z"/>
<path d="M2970 380 c-12 -22 2 -60 22 -60 7 0 6 5 -2 15 -7 8 -10 26 -8 40 6
30 2 32 -12 5z"/>
<path d="M3015 360 c0 -33 2 -37 14 -25 9 8 11 23 7 39 -10 39 -21 31 -21 -14z"/>
<path d="M3064 385 c-3 -8 -3 -18 0 -23 3 -5 1 -23 -4 -41 -8 -28 -6 -32 16
-37 26 -7 54 10 54 32 0 8 -10 14 -25 14 -24 0 -29 11 -28 58 1 16 -6 15 -13
-3z m54 -77 c-3 -7 -13 -13 -23 -13 -10 0 -20 6 -22 13 -3 7 5 12 22 12 17 0
25 -5 23 -12z"/>
<path d="M3104 376 c1 -28 11 -26 19 4 3 12 0 20 -8 20 -7 0 -12 -10 -11 -24z"/>
<path d="M3153 360 c0 -22 4 -40 9 -40 4 0 8 18 8 40 0 22 -4 40 -8 40 -5 0
-9 -18 -9 -40z"/>
<path d="M3235 368 c0 -17 -6 -33 -12 -35 -7 -3 -13 2 -13 10 0 9 6 18 13 20
7 4 8 6 1 6 -16 1 -37 -26 -30 -38 4 -5 19 -9 34 -9 26 1 27 3 24 39 -5 47
-17 52 -17 7z"/>
<path d="M3275 390 c-5 -9 0 -19 19 -32 14 -11 23 -25 20 -31 -4 -7 -1 -6 7 1
12 11 11 16 -7 31 -11 9 -23 23 -26 31 -4 12 -6 12 -13 0z"/>
<path d="M710 336 c0 -10 8 -16 22 -16 12 0 19 1 17 3 -2 1 -12 9 -21 16 -15
12 -18 11 -18 -3z"/>
<path d="M3390 336 c0 -10 8 -16 22 -16 12 0 19 1 17 3 -2 1 -12 9 -21 16 -15
12 -18 11 -18 -3z"/>
<path d="M3710 337 c0 -10 8 -17 18 -17 9 0 13 4 7 8 -5 4 -13 11 -17 16 -5 5
-8 2 -8 -7z"/>
<path d="M3270 330 c0 -5 5 -10 11 -10 5 0 7 5 4 10 -3 6 -8 10 -11 10 -2 0
-4 -4 -4 -10z"/>
<path d="M3495 330 c-3 -5 -1 -10 4 -10 6 0 11 5 11 10 0 6 -2 10 -4 10 -3 0
-8 -4 -11 -10z"/>
<path d="M3810 330 c0 -5 5 -10 11 -10 5 0 7 5 4 10 -3 6 -8 10 -11 10 -2 0
-4 -4 -4 -10z"/>
</g>
</svg>
